<svg width="1200" height="400" viewBox="0 0 1200 400" xmlns="http://www.w3.org/2000/svg">
  <rect width="1200" height="400" fill="#123f36"/>

  <text x="760" y="300" font-family="'IBM Plex Mono', monospace" font-weight="700" font-size="260" fill="#6fd9b8" opacity="0.07">&lt;/&gt;</text>

  <rect x="210" y="150" width="100" height="100" rx="18" fill="#1b6b5b"/>
  <g transform="translate(232.4,172.4) scale(2.3)" fill="none" stroke="#6fd9b8" stroke-width="1.8" stroke-linecap="round" stroke-linejoin="round">
    <path d="M8 6L3 12L8 18"/>
    <path d="M16 6L21 12L16 18"/>
    <path d="M14 4L10 20"/>
  </g>

  <text x="340" y="215" font-family="'IBM Plex Sans', sans-serif" font-weight="700" font-size="52" fill="#f2f7f4">BioTools</text>
  <text x="340" y="245" font-family="'IBM Plex Sans', sans-serif" font-style="italic" font-size="20" fill="#93a19b">Beautifully boring.</text>

  <rect x="340" y="265" width="10" height="10" rx="3" fill="#6fd9b8"/>
  <rect x="356" y="265" width="10" height="10" rx="3" fill="none" stroke="#6fd9b8" stroke-width="1.3" stroke-dasharray="2 2"/>
  <rect x="372" y="265" width="10" height="10" rx="3" fill="#6fd9b8"/>
  <rect x="388" y="265" width="10" height="10" rx="3" fill="#6fd9b8"/>
  <rect x="404" y="265" width="10" height="10" rx="3" fill="none" stroke="#6fd9b8" stroke-width="1.3" stroke-dasharray="2 2"/>
  <rect x="420" y="265" width="10" height="10" rx="3" fill="#6fd9b8"/>

  <text x="760" y="345" font-family="'IBM Plex Mono', monospace" font-size="16" fill="#5f8377">$ samtools view -f 2 -F 260 -q 20 sample.bam</text>
</svg>
